<svg width="107" height="40" xmlns="http://www.w3.org/2000/svg"><g fill="none" fill-rule="evenodd"><path d="M21.102 17.382v2.227c-.493-.445-1.1-.705-1.895-.705-1.535 0-2.311 1.095-2.311 2.264 0 1.317 1.004 2.282 2.387 2.282.511 0 1.193-.148 1.819-.705v2.209a4.763 4.763 0 0 1-2.122.5c-1.289 0-2.425-.482-3.164-1.169-.625-.575-1.308-1.577-1.308-3.08 0-1.41.588-2.542 1.421-3.266 1.005-.872 2.16-1.04 2.956-1.04.853 0 1.554.168 2.217.483zm6.025-.482c1.553 0 2.614.5 3.315 1.132.815.723 1.383 1.837 1.383 3.154a4.183 4.183 0 0 1-1.383 3.137c-.7.63-1.762 1.132-3.315 1.132-1.554 0-2.615-.501-3.316-1.132a4.183 4.183 0 0 1-1.383-3.137c0-1.317.568-2.43 1.383-3.154.701-.631 1.762-1.132 3.316-1.132zm0 6.55c1.345 0 2.311-1.039 2.311-2.264 0-1.261-.985-2.282-2.311-2.282-1.327 0-2.312 1.02-2.312 2.282 0 1.225.966 2.264 2.312 2.264zm12.77-5.251v-5.472h2.31v12.468h-2.31v-1.04c-.834 1.17-1.933 1.3-2.52 1.3-2.52 0-4.188-1.93-4.188-4.287 0-2.375 1.649-4.268 4.074-4.268.625 0 1.856.111 2.633 1.299zm-2.047.705c-1.326 0-2.274.983-2.274 2.264 0 1.28.948 2.282 2.274 2.282s2.274-1.002 2.274-2.282-.948-2.264-2.274-2.264zm12.485 3.711l2.122.334c-.246.594-1.174 2.506-4.035 2.506-1.326 0-2.33-.372-3.145-1.132-.91-.836-1.288-1.875-1.288-3.137 0-1.595.663-2.579 1.25-3.154.966-.928 2.103-1.132 3.088-1.132 1.667 0 2.634.65 3.202 1.317.872 1.02.985 2.283.985 3.155v.186h-6.138c0 .482.132 1.002.398 1.354.246.334.757.761 1.648.761.871 0 1.535-.408 1.913-1.058zm-3.883-2.505h3.883c-.189-1.095-1.098-1.614-1.951-1.614s-1.743.538-1.932 1.614zm7.692 1.856v-2.079h4.926v2.079h-4.926zM65.398 16.9c1.553 0 2.614.5 3.315 1.132.815.723 1.383 1.837 1.383 3.154a4.183 4.183 0 0 1-1.383 3.137c-.7.63-1.762 1.132-3.315 1.132-1.554 0-2.615-.501-3.316-1.132a4.183 4.183 0 0 1-1.383-3.137c0-1.317.568-2.43 1.383-3.154.701-.631 1.762-1.132 3.316-1.132zm0 6.55c1.345 0 2.311-1.039 2.311-2.264 0-1.261-.985-2.282-2.311-2.282-1.327 0-2.312 1.02-2.312 2.282 0 1.225.966 2.264 2.312 2.264zm6.48 1.745V17.16h2.31v1.039c.436-.594 1.213-1.3 2.54-1.3.72 0 1.78.205 2.424.984.569.687.645 1.485.645 2.264v5.048h-2.312v-4.38c0-.445-.019-1.15-.436-1.577-.36-.371-.852-.408-1.08-.408-.606 0-1.08.204-1.42.705-.341.52-.36 1.095-.36 1.559v4.1h-2.312z" fill="#232D4E"/><path d="M.974.974v38.052h105.052V.974H.974z" stroke="#232D4E" stroke-width="1.947"/><path d="M87.05 14.545L92.493 20l-5.441 5.455" stroke="#232D4E" stroke-width="1.822"/></g></svg>